<?xml version="1.0" standalone="no"?><!DOCTYPE svg PUBLIC "-//W3C//DTD SVG 1.1//EN" "http://www.w3.org/Graphics/SVG/1.1/DTD/svg11.dtd"><svg t="1785201777472" class="icon" viewBox="0 0 1024 1024" version="1.1" xmlns="http://www.w3.org/2000/svg" p-id="4097" xmlns:xlink="http://www.w3.org/1999/xlink" width="200" height="200"><path d="M284.4478464 437.44902371l-31.51513827 99.4284692 61.10802602 0" fill="#d81e06" p-id="4098"></path><path d="M390.04824349 257.19635627c0.6578267-35.01268082 12.55110087-52.8520101 35.67865742-53.5179867 24.11022222 0 36.17348267 17.83932928 36.17348266 53.5179867-0.33298887 34.36184007-12.22509795 51.86003058-35.67865742 52.52600718C402.10335403 309.72236345 390.04824349 292.21602304 390.04824349 257.19635627zM407.39158243 257.19635627c-0.33298887 27.09081771 5.94489003 40.13790777 18.82897978 39.14709219 12.55110087 0.66481266 18.65899235-12.38926336 18.33415452-39.14709219 0.32483783-27.08383175-5.94721906-40.13790777-18.82897977-39.1470922C413.83362674 218.71524067 407.71642027 231.76233074 407.39158243 257.19635627z" p-id="4099" fill="#d81e06"></path><path d="M473.79249379 257.19635627c0.6578267-35.01268082 12.55110087-52.8520101 35.67865743-53.5179867 24.11022222 0 36.17348267 17.83932928 36.17348267 53.5179867-0.33298887 34.36184007-12.22509795 51.86003058-35.67865743 52.52600718C485.84760434 309.72236345 473.79249379 292.21602304 473.79249379 257.19635627zM491.13699669 257.19635627c-0.33298887 27.09081771 5.94489003 40.13790777 18.82897977 39.14709219 12.55110087 0.66481266 18.65899235-12.38926336 18.33415453-39.14709219 0.32483783-27.08383175-5.94721906-40.13790777-18.82897977-39.1470922C497.57787705 218.71524067 491.46183566 231.76233074 491.13699669 257.19635627z" p-id="4100" fill="#d81e06"></path><path d="M612.54153443 254.71873707c11.5602853 4.29741283 17.66817792 13.05407602 18.33415453 26.26300359-0.99081557 18.17231701-13.21707747 27.74980835-36.66947299 28.74062393-23.78538325-0.66597661-36.17348267-10.56830578-37.16546219-29.73143837 0.32600291-12.218112 6.44320939-20.64178745 18.33415452-25.27218801-8.59482567-4.95523954-13.21707747-12.21694805-13.87374023-21.80375325 1.64864227-18.49715598 12.38809941-28.2446336 32.20789362-29.23661312 19.82212323 1.32380331 30.72458183 11.23428352 32.70621184 29.73143837C625.75046201 242.66362539 621.12821134 249.76349639 612.54153443 254.71873707zM594.20738105 296.83943879c11.89211022-0.65899065 18.33415453-5.94721906 19.32496896-15.85769813-0.33298887-12.54993693-6.93803463-18.99198123-19.82212324-19.32496896-12.2262619 0.99081557-18.66597831 7.10802091-19.32496896 18.33415452C575.37607225 290.23439303 581.98111801 295.84745927 594.20738105 296.83943879zM593.71022677 218.04926407c-9.25265237 0.99081557-14.20789305 5.62121614-14.86571975 13.87490418 0.32483783 10.57645682 5.45239381 16.02768555 15.36170895 16.35252452 9.57749134-0.32483783 14.53273088-5.45006478 14.86571974-15.36170895C608.40712306 223.99648313 603.28888206 219.04007851 593.71022677 218.04926407z" p-id="4101" fill="#d81e06"></path><path d="M56.34847403 347.81344085c-35.14191758 2.40077597-63.34929351 77.67361536-63.34929352 170.18151481s28.20621198 167.78073885 63.34929352 170.18151481L56.34847403 347.81344085z" fill="#d81e06" p-id="4102"></path><path d="M964.43341483 347.81344085c35.14191758 2.40077597 63.34929351 77.67361536 63.34929351 170.18151481s-28.20621198 167.78073885-63.34929351 170.18151481L964.43341483 347.81344085z" fill="#d81e06" p-id="4103"></path><path d="M953.1350949 750.07155997l0-0.60310528-0.22237981 0.15135857L952.91271509 279.16660395l0.22237981 0.15368647 0-2.15161743c0 0 0.82664903-22.54890211-2.45549853-29.01772515-2.82574393-5.56765867-17.69961358-14.74696078-17.69961358-14.74696078L726.67854279 90.31911083c0 0-11.93751666-10.242304-17.31656021-12.00038912-4.95407559-1.61837056-21.79560334-1.3657179-21.79560335-1.3657179L319.21369657 76.95300381c0 0-14.86921159-0.59379029-19.82328718 1.02457912-4.85743843 1.58693376-17.52147627 11.04566727-17.52147627 11.04566728l-199.10260395 146.54981802c0 0-10.13868089 6.52121657-12.10284714 10.3924975-0.78240654 1.54152619-1.25045305 4.40918585-1.52988331 7.48408832l-0.22820181 0 0 3.25304092c-0.24333767 4.64786546-0.15252253 8.88240697-0.15252253 8.88240697l0 16.52483982 0.15252253-0.11410091 0 464.7970634-0.15252253-0.11293696 0 5.71668821c0 0-0.07567929 4.14256128 0.15252253 9.05355833l0 4.61875883 0.30621013 0c0.35045262 3.9329883 0.95705088 7.71229013 1.99676587 9.76261347 2.77800846 5.47567957 17.36662471 15.73311943 17.36662471 15.73311944l193.37427285 142.35835619c0 0 11.72095773 7.97658567 16.55511154 9.55653347 5.47102265 1.78835683 22.88538397 2.45549853 22.88538396 2.45549853l360.72655076 0c0 0 18.27244601 1.22018133 24.52121828-0.82082816 5.14385579-1.68124189 19.24113977-11.95963847 19.24113976-11.95963847l209.03520484-145.08513508c0 0 13.75614635-8.29909561 16.31060992-13.33234232C954.01413746 769.23702045 953.1350949 750.07155997 953.1350949 750.07155997zM710.70907278 914.63069355c-0.34463175 0.10944398-414.10132878 0.91979321-414.91051292 0.19094414L93.31600611 764.87091427l0-501.07766214 202.48138866-150.98811051c0.81034923-0.72884907 414.56704626-1.08162958 414.91167801-0.97102165l218.43921579 150.91476024-0.64618382 0 0 503.32009358 0.26778738 0L710.70907278 914.63069355z" fill="#d81e06" p-id="4104"></path><path d="M898.66587933 746.45176661l-0.72768399-464.12992284c-0.14553657-0.04307854-195.3326171-134.07439645-195.3326171-134.07439644l0.0081499-0.1315658L305.7649243 148.11588153c-0.09197909 0-0.18046521-0.01629981-0.27128035-0.02444971L124.38871267 282.00049778l0.2479946 466.22681771 180.85693668 132.2778897c0.09081515-0.00698595 0.17930126-0.02444971 0.27128035-0.0244497L702.61256419 880.48075549l-0.0081499-0.1315658L898.66587933 746.45176661zM732.61761195 582.59703011c0.78822741-7.2978011 54.59728839-184.65370226 54.59728839-184.65370225l51.04618837 0-79.60168789 229.18915299-55.1899136 0-78.56662983-229.18915299 52.67387278 0L732.61761195 582.59703011zM355.27890034 184.11821283l300.82822713 0c12.96675385 0 23.47917426 10.51242041 23.47917426 23.47917426l-11.73958656 95.38487182c0 12.96675385-10.51242041 23.47917426-23.47917426 23.47917426L367.0184869 326.46143317c-12.96675385 0-23.47917426-10.51242041-23.47917426-23.47917426l-11.73958656-95.38487182C331.79972608 194.6294693 342.31214649 184.11821283 355.27890034 184.11821283zM242.27940807 574.60763762l-16.86714254 52.52484323-52.9684389 0 83.89211591-229.18915299 57.40906041 0 82.26559545 229.18915299-53.26533405 0-17.16403768-52.52484323L242.27940807 574.60763762zM372.67230379 840.13676771c-27.64967936 0-50.06468779-22.41500843-50.06468779-50.06468778 0-27.64967936 22.41500843-50.06468779 50.06468779-50.06468779s50.06468779 22.41500843 50.06468778 50.06468779C422.73699157 817.72175929 400.32198315 840.13676771 372.67230379 840.13676771zM438.76933405 600.35253021c-21.10983395-20.51487858-31.66300387-48.57904697-31.66300388-84.18901106 0-36.10246144 11.61500786-65.47180317 34.84502244-88.10919254 23.23001458-22.63855331 53.83118165-33.95666489 91.80815814-33.95666488 24.46183879 0 45.81617437 3.45329891 64.0664997 10.3564049l0 46.3121647c-17.75550009-10.35756885-39.45679531-15.53635328-65.1027217-15.53635328-22.09715541 0-39.99935602 7.20116509-53.70893085 21.60233016-13.71190272 14.40349411-20.56610816 33.38965333-20.56610816 56.96546361 0 23.96934258 6.1882277 42.66209963 18.56934229 56.07594212 12.37762048 13.41617152 29.27037781 20.12367531 50.67594184 20.12367531 12.72574521 0 23.13104953-1.97348011 31.22057216-5.91927638L558.91410489 537.02535737l-46.3121647 0 0-39.20880071 95.13920626 0 0 113.92859932c-22.39288661 12.92367531-49.91449315 19.38201941-82.56249059 19.38201941C488.68033422 631.12834162 459.87683897 620.86973781 438.76933405 600.35253021zM615.8795685 821.49640419c-14.21604295 0-25.74023453-11.52419271-25.74023453-25.74023452 0-14.21604295 11.52419271-25.74023453 25.74023453-25.74023452 14.21604295 0 25.74023453 11.52419271 25.74023452 25.74023452C641.61980416 809.97221149 630.09561145 821.49640419 615.8795685 821.49640419zM658.99225088 795.75616853c0-14.21604295 11.52419271-25.74023453 25.74023453-25.74023452 14.21604295 0 25.74023453 11.52419271 25.74023452 25.74023452 0 14.21604295-11.52419271 25.74023453-25.74023452 25.74023453C670.51644245 821.49640419 658.99225088 809.97221149 658.99225088 795.75616853z" fill="#d81e06" p-id="4105"></path></svg>